<mxfile host="app.diagrams.net" modified="2022-02-03T09:54:38.385Z" agent="5.0 (X11)" etag="4U1EWH1HTzWIBvK9VvHq" version="16.2.7" type="github">
  <diagram id="xnGHlYTPteLf9YvXNITQ" name="Page-1">
    <mxGraphModel dx="1154" dy="551" grid="1" gridSize="10" guides="1" tooltips="1" connect="1" arrows="1" fold="1" page="1" pageScale="1" pageWidth="850" pageHeight="1100" math="0" shadow="0">
      <root>
        <mxCell id="0" />
        <mxCell id="1" parent="0" />
        <mxCell id="dxVS9cvVU3etAeJPtLHa-1" value="" style="shape=table;startSize=0;container=1;collapsible=0;childLayout=tableLayout;" parent="1" vertex="1">
          <mxGeometry x="160" y="120" width="360" height="360" as="geometry" />
        </mxCell>
        <mxCell id="dxVS9cvVU3etAeJPtLHa-2" value="" style="shape=tableRow;horizontal=0;startSize=0;swimlaneHead=0;swimlaneBody=0;top=0;left=0;bottom=0;right=0;collapsible=0;dropTarget=0;fillColor=none;points=[[0,0.5],[1,0.5]];portConstraint=eastwest;" parent="dxVS9cvVU3etAeJPtLHa-1" vertex="1">
          <mxGeometry width="360" height="40" as="geometry" />
        </mxCell>
        <mxCell id="dxVS9cvVU3etAeJPtLHa-3" value="&lt;font style=&quot;font-size: 18px;&quot;&gt;Û¶&lt;/font&gt;" style="shape=partialRectangle;html=1;whiteSpace=wrap;connectable=0;overflow=hidden;fillColor=none;top=0;left=0;bottom=0;right=0;pointerEvents=1;fontFamily=IRANSansXFaNum;fontStyle=1;fontSize=18;" parent="dxVS9cvVU3etAeJPtLHa-2" vertex="1">
          <mxGeometry width="40" height="40" as="geometry">
            <mxRectangle width="40" height="40" as="alternateBounds" />
          </mxGeometry>
        </mxCell>
        <mxCell id="dxVS9cvVU3etAeJPtLHa-4" value="" style="shape=partialRectangle;html=1;whiteSpace=wrap;connectable=0;overflow=hidden;fillColor=none;top=0;left=0;bottom=0;right=0;pointerEvents=1;fontFamily=IRANSansXFaNum;fontStyle=1;fontSize=18;" parent="dxVS9cvVU3etAeJPtLHa-2" vertex="1">
          <mxGeometry x="40" width="40" height="40" as="geometry">
            <mxRectangle width="40" height="40" as="alternateBounds" />
          </mxGeometry>
        </mxCell>
        <mxCell id="dxVS9cvVU3etAeJPtLHa-5" value="" style="shape=partialRectangle;html=1;whiteSpace=wrap;connectable=0;overflow=hidden;fillColor=none;top=0;left=0;bottom=0;right=0;pointerEvents=1;fontFamily=IRANSansXFaNum;fontStyle=1;fontSize=18;" parent="dxVS9cvVU3etAeJPtLHa-2" vertex="1">
          <mxGeometry x="80" width="40" height="40" as="geometry">
            <mxRectangle width="40" height="40" as="alternateBounds" />
          </mxGeometry>
        </mxCell>
        <mxCell id="dxVS9cvVU3etAeJPtLHa-6" value="" style="shape=partialRectangle;html=1;whiteSpace=wrap;connectable=0;overflow=hidden;fillColor=none;top=0;left=0;bottom=0;right=0;pointerEvents=1;fontFamily=IRANSansXFaNum;fontStyle=1;fontSize=18;" parent="dxVS9cvVU3etAeJPtLHa-2" vertex="1">
          <mxGeometry x="120" width="40" height="40" as="geometry">
            <mxRectangle width="40" height="40" as="alternateBounds" />
          </mxGeometry>
        </mxCell>
        <mxCell id="dxVS9cvVU3etAeJPtLHa-7" value="" style="shape=partialRectangle;html=1;whiteSpace=wrap;connectable=0;overflow=hidden;fillColor=none;top=0;left=0;bottom=0;right=0;pointerEvents=1;fontFamily=IRANSansXFaNum;fontStyle=1;fontSize=18;" parent="dxVS9cvVU3etAeJPtLHa-2" vertex="1">
          <mxGeometry x="160" width="40" height="40" as="geometry">
            <mxRectangle width="40" height="40" as="alternateBounds" />
          </mxGeometry>
        </mxCell>
        <mxCell id="dxVS9cvVU3etAeJPtLHa-8" value="" style="shape=partialRectangle;html=1;whiteSpace=wrap;connectable=0;overflow=hidden;fillColor=none;top=0;left=0;bottom=0;right=0;pointerEvents=1;fontFamily=IRANSansXFaNum;fontStyle=1;fontSize=18;" parent="dxVS9cvVU3etAeJPtLHa-2" vertex="1">
          <mxGeometry x="200" width="40" height="40" as="geometry">
            <mxRectangle width="40" height="40" as="alternateBounds" />
          </mxGeometry>
        </mxCell>
        <mxCell id="dxVS9cvVU3etAeJPtLHa-9" value="" style="shape=partialRectangle;html=1;whiteSpace=wrap;connectable=0;overflow=hidden;fillColor=none;top=0;left=0;bottom=0;right=0;pointerEvents=1;fontFamily=IRANSansXFaNum;fontStyle=1;fontSize=18;" parent="dxVS9cvVU3etAeJPtLHa-2" vertex="1">
          <mxGeometry x="240" width="40" height="40" as="geometry">
            <mxRectangle width="40" height="40" as="alternateBounds" />
          </mxGeometry>
        </mxCell>
        <mxCell id="dxVS9cvVU3etAeJPtLHa-10" value="" style="shape=partialRectangle;html=1;whiteSpace=wrap;connectable=0;overflow=hidden;fillColor=none;top=0;left=0;bottom=0;right=0;pointerEvents=1;fontFamily=IRANSansXFaNum;fontStyle=1;fontSize=18;" parent="dxVS9cvVU3etAeJPtLHa-2" vertex="1">
          <mxGeometry x="280" width="40" height="40" as="geometry">
            <mxRectangle width="40" height="40" as="alternateBounds" />
          </mxGeometry>
        </mxCell>
        <mxCell id="dxVS9cvVU3etAeJPtLHa-11" value="" style="shape=partialRectangle;html=1;whiteSpace=wrap;connectable=0;overflow=hidden;fillColor=none;top=0;left=0;bottom=0;right=0;pointerEvents=1;fontFamily=IRANSansXFaNum;fontStyle=1;fontSize=18;" parent="dxVS9cvVU3etAeJPtLHa-2" vertex="1">
          <mxGeometry x="320" width="40" height="40" as="geometry">
            <mxRectangle width="40" height="40" as="alternateBounds" />
          </mxGeometry>
        </mxCell>
        <mxCell id="dxVS9cvVU3etAeJPtLHa-12" value="" style="shape=tableRow;horizontal=0;startSize=0;swimlaneHead=0;swimlaneBody=0;top=0;left=0;bottom=0;right=0;collapsible=0;dropTarget=0;fillColor=none;points=[[0,0.5],[1,0.5]];portConstraint=eastwest;" parent="dxVS9cvVU3etAeJPtLHa-1" vertex="1">
          <mxGeometry y="40" width="360" height="40" as="geometry" />
        </mxCell>
        <mxCell id="dxVS9cvVU3etAeJPtLHa-13" value="" style="shape=partialRectangle;html=1;whiteSpace=wrap;connectable=0;overflow=hidden;fillColor=none;top=0;left=0;bottom=0;right=0;pointerEvents=1;fontFamily=IRANSansXFaNum;fontStyle=1;fontSize=18;" parent="dxVS9cvVU3etAeJPtLHa-12" vertex="1">
          <mxGeometry width="40" height="40" as="geometry">
            <mxRectangle width="40" height="40" as="alternateBounds" />
          </mxGeometry>
        </mxCell>
        <mxCell id="dxVS9cvVU3etAeJPtLHa-14" value="" style="shape=partialRectangle;html=1;whiteSpace=wrap;connectable=0;overflow=hidden;fillColor=none;top=0;left=0;bottom=0;right=0;pointerEvents=1;fontFamily=IRANSansXFaNum;fontStyle=1;fontSize=18;" parent="dxVS9cvVU3etAeJPtLHa-12" vertex="1">
          <mxGeometry x="40" width="40" height="40" as="geometry">
            <mxRectangle width="40" height="40" as="alternateBounds" />
          </mxGeometry>
        </mxCell>
        <mxCell id="dxVS9cvVU3etAeJPtLHa-15" value="" style="shape=partialRectangle;html=1;whiteSpace=wrap;connectable=0;overflow=hidden;fillColor=none;top=0;left=0;bottom=0;right=0;pointerEvents=1;fontFamily=IRANSansXFaNum;fontStyle=1;fontSize=18;" parent="dxVS9cvVU3etAeJPtLHa-12" vertex="1">
          <mxGeometry x="80" width="40" height="40" as="geometry">
            <mxRectangle width="40" height="40" as="alternateBounds" />
          </mxGeometry>
        </mxCell>
        <mxCell id="dxVS9cvVU3etAeJPtLHa-16" value="" style="shape=partialRectangle;html=1;whiteSpace=wrap;connectable=0;overflow=hidden;fillColor=none;top=0;left=0;bottom=0;right=0;pointerEvents=1;fontFamily=IRANSansXFaNum;fontStyle=1;fontSize=18;" parent="dxVS9cvVU3etAeJPtLHa-12" vertex="1">
          <mxGeometry x="120" width="40" height="40" as="geometry">
            <mxRectangle width="40" height="40" as="alternateBounds" />
          </mxGeometry>
        </mxCell>
        <mxCell id="dxVS9cvVU3etAeJPtLHa-17" value="" style="shape=partialRectangle;html=1;whiteSpace=wrap;connectable=0;overflow=hidden;fillColor=none;top=0;left=0;bottom=0;right=0;pointerEvents=1;fontFamily=IRANSansXFaNum;fontStyle=1;fontSize=18;" parent="dxVS9cvVU3etAeJPtLHa-12" vertex="1">
          <mxGeometry x="160" width="40" height="40" as="geometry">
            <mxRectangle width="40" height="40" as="alternateBounds" />
          </mxGeometry>
        </mxCell>
        <mxCell id="dxVS9cvVU3etAeJPtLHa-18" value="" style="shape=partialRectangle;html=1;whiteSpace=wrap;connectable=0;overflow=hidden;fillColor=none;top=0;left=0;bottom=0;right=0;pointerEvents=1;fontFamily=IRANSansXFaNum;fontStyle=1;fontSize=18;" parent="dxVS9cvVU3etAeJPtLHa-12" vertex="1">
          <mxGeometry x="200" width="40" height="40" as="geometry">
            <mxRectangle width="40" height="40" as="alternateBounds" />
          </mxGeometry>
        </mxCell>
        <mxCell id="dxVS9cvVU3etAeJPtLHa-19" value="" style="shape=partialRectangle;html=1;whiteSpace=wrap;connectable=0;overflow=hidden;fillColor=none;top=0;left=0;bottom=0;right=0;pointerEvents=1;fontFamily=IRANSansXFaNum;fontStyle=1;fontSize=18;" parent="dxVS9cvVU3etAeJPtLHa-12" vertex="1">
          <mxGeometry x="240" width="40" height="40" as="geometry">
            <mxRectangle width="40" height="40" as="alternateBounds" />
          </mxGeometry>
        </mxCell>
        <mxCell id="dxVS9cvVU3etAeJPtLHa-20" value="" style="shape=partialRectangle;html=1;whiteSpace=wrap;connectable=0;overflow=hidden;fillColor=none;top=0;left=0;bottom=0;right=0;pointerEvents=1;fontFamily=IRANSansXFaNum;fontStyle=1;fontSize=18;" parent="dxVS9cvVU3etAeJPtLHa-12" vertex="1">
          <mxGeometry x="280" width="40" height="40" as="geometry">
            <mxRectangle width="40" height="40" as="alternateBounds" />
          </mxGeometry>
        </mxCell>
        <mxCell id="dxVS9cvVU3etAeJPtLHa-21" value="" style="shape=partialRectangle;html=1;whiteSpace=wrap;connectable=0;overflow=hidden;fillColor=none;top=0;left=0;bottom=0;right=0;pointerEvents=1;fontFamily=IRANSansXFaNum;fontStyle=1;fontSize=18;" parent="dxVS9cvVU3etAeJPtLHa-12" vertex="1">
          <mxGeometry x="320" width="40" height="40" as="geometry">
            <mxRectangle width="40" height="40" as="alternateBounds" />
          </mxGeometry>
        </mxCell>
        <mxCell id="dxVS9cvVU3etAeJPtLHa-22" value="" style="shape=tableRow;horizontal=0;startSize=0;swimlaneHead=0;swimlaneBody=0;top=0;left=0;bottom=0;right=0;collapsible=0;dropTarget=0;fillColor=none;points=[[0,0.5],[1,0.5]];portConstraint=eastwest;" parent="dxVS9cvVU3etAeJPtLHa-1" vertex="1">
          <mxGeometry y="80" width="360" height="40" as="geometry" />
        </mxCell>
        <mxCell id="dxVS9cvVU3etAeJPtLHa-23" value="5" style="shape=partialRectangle;html=1;whiteSpace=wrap;connectable=0;overflow=hidden;fillColor=none;top=0;left=0;bottom=0;right=0;pointerEvents=1;fontFamily=IRANSansXFaNum;fontStyle=1;fontSize=18;" parent="dxVS9cvVU3etAeJPtLHa-22" vertex="1">
          <mxGeometry width="40" height="40" as="geometry">
            <mxRectangle width="40" height="40" as="alternateBounds" />
          </mxGeometry>
        </mxCell>
        <mxCell id="dxVS9cvVU3etAeJPtLHa-24" value="" style="shape=partialRectangle;html=1;whiteSpace=wrap;connectable=0;overflow=hidden;fillColor=none;top=0;left=0;bottom=0;right=0;pointerEvents=1;fontFamily=IRANSansXFaNum;fontStyle=1;fontSize=18;" parent="dxVS9cvVU3etAeJPtLHa-22" vertex="1">
          <mxGeometry x="40" width="40" height="40" as="geometry">
            <mxRectangle width="40" height="40" as="alternateBounds" />
          </mxGeometry>
        </mxCell>
        <mxCell id="dxVS9cvVU3etAeJPtLHa-25" value="" style="shape=partialRectangle;html=1;whiteSpace=wrap;connectable=0;overflow=hidden;fillColor=none;top=0;left=0;bottom=0;right=0;pointerEvents=1;fontFamily=IRANSansXFaNum;fontStyle=1;fontSize=18;" parent="dxVS9cvVU3etAeJPtLHa-22" vertex="1">
          <mxGeometry x="80" width="40" height="40" as="geometry">
            <mxRectangle width="40" height="40" as="alternateBounds" />
          </mxGeometry>
        </mxCell>
        <mxCell id="dxVS9cvVU3etAeJPtLHa-26" value="3" style="shape=partialRectangle;html=1;whiteSpace=wrap;connectable=0;overflow=hidden;fillColor=none;top=0;left=0;bottom=0;right=0;pointerEvents=1;fontFamily=IRANSansXFaNum;fontStyle=1;fontSize=18;" parent="dxVS9cvVU3etAeJPtLHa-22" vertex="1">
          <mxGeometry x="120" width="40" height="40" as="geometry">
            <mxRectangle width="40" height="40" as="alternateBounds" />
          </mxGeometry>
        </mxCell>
        <mxCell id="dxVS9cvVU3etAeJPtLHa-27" value="" style="shape=partialRectangle;html=1;whiteSpace=wrap;connectable=0;overflow=hidden;fillColor=none;top=0;left=0;bottom=0;right=0;pointerEvents=1;fontFamily=IRANSansXFaNum;fontStyle=1;fontSize=18;" parent="dxVS9cvVU3etAeJPtLHa-22" vertex="1">
          <mxGeometry x="160" width="40" height="40" as="geometry">
            <mxRectangle width="40" height="40" as="alternateBounds" />
          </mxGeometry>
        </mxCell>
        <mxCell id="dxVS9cvVU3etAeJPtLHa-28" value="9" style="shape=partialRectangle;html=1;whiteSpace=wrap;connectable=0;overflow=hidden;fillColor=none;top=0;left=0;bottom=0;right=0;pointerEvents=1;fontFamily=IRANSansXFaNum;fontStyle=1;fontSize=18;" parent="dxVS9cvVU3etAeJPtLHa-22" vertex="1">
          <mxGeometry x="200" width="40" height="40" as="geometry">
            <mxRectangle width="40" height="40" as="alternateBounds" />
          </mxGeometry>
        </mxCell>
        <mxCell id="dxVS9cvVU3etAeJPtLHa-29" value="4" style="shape=partialRectangle;html=1;whiteSpace=wrap;connectable=0;overflow=hidden;fillColor=none;top=0;left=0;bottom=0;right=0;pointerEvents=1;fontFamily=IRANSansXFaNum;fontStyle=1;fontSize=18;" parent="dxVS9cvVU3etAeJPtLHa-22" vertex="1">
          <mxGeometry x="240" width="40" height="40" as="geometry">
            <mxRectangle width="40" height="40" as="alternateBounds" />
          </mxGeometry>
        </mxCell>
        <mxCell id="dxVS9cvVU3etAeJPtLHa-30" value="1" style="shape=partialRectangle;html=1;whiteSpace=wrap;connectable=0;overflow=hidden;fillColor=none;top=0;left=0;bottom=0;right=0;pointerEvents=1;fontFamily=IRANSansXFaNum;fontStyle=1;fontSize=18;" parent="dxVS9cvVU3etAeJPtLHa-22" vertex="1">
          <mxGeometry x="280" width="40" height="40" as="geometry">
            <mxRectangle width="40" height="40" as="alternateBounds" />
          </mxGeometry>
        </mxCell>
        <mxCell id="dxVS9cvVU3etAeJPtLHa-31" value="" style="shape=partialRectangle;html=1;whiteSpace=wrap;connectable=0;overflow=hidden;fillColor=none;top=0;left=0;bottom=0;right=0;pointerEvents=1;fontFamily=IRANSansXFaNum;fontStyle=1;fontSize=18;" parent="dxVS9cvVU3etAeJPtLHa-22" vertex="1">
          <mxGeometry x="320" width="40" height="40" as="geometry">
            <mxRectangle width="40" height="40" as="alternateBounds" />
          </mxGeometry>
        </mxCell>
        <mxCell id="dxVS9cvVU3etAeJPtLHa-32" value="" style="shape=tableRow;horizontal=0;startSize=0;swimlaneHead=0;swimlaneBody=0;top=0;left=0;bottom=0;right=0;collapsible=0;dropTarget=0;fillColor=none;points=[[0,0.5],[1,0.5]];portConstraint=eastwest;" parent="dxVS9cvVU3etAeJPtLHa-1" vertex="1">
          <mxGeometry y="120" width="360" height="40" as="geometry" />
        </mxCell>
        <mxCell id="dxVS9cvVU3etAeJPtLHa-33" value="" style="shape=partialRectangle;html=1;whiteSpace=wrap;connectable=0;overflow=hidden;fillColor=none;top=0;left=0;bottom=0;right=0;pointerEvents=1;fontFamily=IRANSansXFaNum;fontStyle=1;fontSize=18;" parent="dxVS9cvVU3etAeJPtLHa-32" vertex="1">
          <mxGeometry width="40" height="40" as="geometry">
            <mxRectangle width="40" height="40" as="alternateBounds" />
          </mxGeometry>
        </mxCell>
        <mxCell id="dxVS9cvVU3etAeJPtLHa-34" value="" style="shape=partialRectangle;html=1;whiteSpace=wrap;connectable=0;overflow=hidden;fillColor=none;top=0;left=0;bottom=0;right=0;pointerEvents=1;fontFamily=IRANSansXFaNum;fontStyle=1;fontSize=18;" parent="dxVS9cvVU3etAeJPtLHa-32" vertex="1">
          <mxGeometry x="40" width="40" height="40" as="geometry">
            <mxRectangle width="40" height="40" as="alternateBounds" />
          </mxGeometry>
        </mxCell>
        <mxCell id="dxVS9cvVU3etAeJPtLHa-35" value="9" style="shape=partialRectangle;html=1;whiteSpace=wrap;connectable=0;overflow=hidden;fillColor=none;top=0;left=0;bottom=0;right=0;pointerEvents=1;fontFamily=IRANSansXFaNum;fontStyle=1;fontSize=18;" parent="dxVS9cvVU3etAeJPtLHa-32" vertex="1">
          <mxGeometry x="80" width="40" height="40" as="geometry">
            <mxRectangle width="40" height="40" as="alternateBounds" />
          </mxGeometry>
        </mxCell>
        <mxCell id="dxVS9cvVU3etAeJPtLHa-36" value="2" style="shape=partialRectangle;html=1;whiteSpace=wrap;connectable=0;overflow=hidden;fillColor=none;top=0;left=0;bottom=0;right=0;pointerEvents=1;fontFamily=IRANSansXFaNum;fontStyle=1;fontSize=18;" parent="dxVS9cvVU3etAeJPtLHa-32" vertex="1">
          <mxGeometry x="120" width="40" height="40" as="geometry">
            <mxRectangle width="40" height="40" as="alternateBounds" />
          </mxGeometry>
        </mxCell>
        <mxCell id="dxVS9cvVU3etAeJPtLHa-37" value="1" style="shape=partialRectangle;html=1;whiteSpace=wrap;connectable=0;overflow=hidden;fillColor=none;top=0;left=0;bottom=0;right=0;pointerEvents=1;fontFamily=IRANSansXFaNum;fontStyle=1;fontSize=18;" parent="dxVS9cvVU3etAeJPtLHa-32" vertex="1">
          <mxGeometry x="160" width="40" height="40" as="geometry">
            <mxRectangle width="40" height="40" as="alternateBounds" />
          </mxGeometry>
        </mxCell>
        <mxCell id="dxVS9cvVU3etAeJPtLHa-38" value="" style="shape=partialRectangle;html=1;whiteSpace=wrap;connectable=0;overflow=hidden;fillColor=none;top=0;left=0;bottom=0;right=0;pointerEvents=1;fontFamily=IRANSansXFaNum;fontStyle=1;fontSize=18;" parent="dxVS9cvVU3etAeJPtLHa-32" vertex="1">
          <mxGeometry x="200" width="40" height="40" as="geometry">
            <mxRectangle width="40" height="40" as="alternateBounds" />
          </mxGeometry>
        </mxCell>
        <mxCell id="dxVS9cvVU3etAeJPtLHa-39" value="" style="shape=partialRectangle;html=1;whiteSpace=wrap;connectable=0;overflow=hidden;fillColor=none;top=0;left=0;bottom=0;right=0;pointerEvents=1;fontFamily=IRANSansXFaNum;fontStyle=1;fontSize=18;" parent="dxVS9cvVU3etAeJPtLHa-32" vertex="1">
          <mxGeometry x="240" width="40" height="40" as="geometry">
            <mxRectangle width="40" height="40" as="alternateBounds" />
          </mxGeometry>
        </mxCell>
        <mxCell id="dxVS9cvVU3etAeJPtLHa-40" value="" style="shape=partialRectangle;html=1;whiteSpace=wrap;connectable=0;overflow=hidden;fillColor=none;top=0;left=0;bottom=0;right=0;pointerEvents=1;fontFamily=IRANSansXFaNum;fontStyle=1;fontSize=18;" parent="dxVS9cvVU3etAeJPtLHa-32" vertex="1">
          <mxGeometry x="280" width="40" height="40" as="geometry">
            <mxRectangle width="40" height="40" as="alternateBounds" />
          </mxGeometry>
        </mxCell>
        <mxCell id="dxVS9cvVU3etAeJPtLHa-41" value="" style="shape=partialRectangle;html=1;whiteSpace=wrap;connectable=0;overflow=hidden;fillColor=none;top=0;left=0;bottom=0;right=0;pointerEvents=1;fontFamily=IRANSansXFaNum;fontStyle=1;fontSize=18;" parent="dxVS9cvVU3etAeJPtLHa-32" vertex="1">
          <mxGeometry x="320" width="40" height="40" as="geometry">
            <mxRectangle width="40" height="40" as="alternateBounds" />
          </mxGeometry>
        </mxCell>
        <mxCell id="dxVS9cvVU3etAeJPtLHa-42" value="" style="shape=tableRow;horizontal=0;startSize=0;swimlaneHead=0;swimlaneBody=0;top=0;left=0;bottom=0;right=0;collapsible=0;dropTarget=0;fillColor=none;points=[[0,0.5],[1,0.5]];portConstraint=eastwest;" parent="dxVS9cvVU3etAeJPtLHa-1" vertex="1">
          <mxGeometry y="160" width="360" height="40" as="geometry" />
        </mxCell>
        <mxCell id="dxVS9cvVU3etAeJPtLHa-43" value="3" style="shape=partialRectangle;html=1;whiteSpace=wrap;connectable=0;overflow=hidden;fillColor=none;top=0;left=0;bottom=0;right=0;pointerEvents=1;fontFamily=IRANSansXFaNum;fontStyle=1;fontSize=18;" parent="dxVS9cvVU3etAeJPtLHa-42" vertex="1">
          <mxGeometry width="40" height="40" as="geometry">
            <mxRectangle width="40" height="40" as="alternateBounds" />
          </mxGeometry>
        </mxCell>
        <mxCell id="dxVS9cvVU3etAeJPtLHa-44" value="" style="shape=partialRectangle;html=1;whiteSpace=wrap;connectable=0;overflow=hidden;fillColor=none;top=0;left=0;bottom=0;right=0;pointerEvents=1;fontFamily=IRANSansXFaNum;fontStyle=1;fontSize=18;" parent="dxVS9cvVU3etAeJPtLHa-42" vertex="1">
          <mxGeometry x="40" width="40" height="40" as="geometry">
            <mxRectangle width="40" height="40" as="alternateBounds" />
          </mxGeometry>
        </mxCell>
        <mxCell id="dxVS9cvVU3etAeJPtLHa-45" value="" style="shape=partialRectangle;html=1;whiteSpace=wrap;connectable=0;overflow=hidden;fillColor=none;top=0;left=0;bottom=0;right=0;pointerEvents=1;fontFamily=IRANSansXFaNum;fontStyle=1;fontSize=18;" parent="dxVS9cvVU3etAeJPtLHa-42" vertex="1">
          <mxGeometry x="80" width="40" height="40" as="geometry">
            <mxRectangle width="40" height="40" as="alternateBounds" />
          </mxGeometry>
        </mxCell>
        <mxCell id="dxVS9cvVU3etAeJPtLHa-46" value="" style="shape=partialRectangle;html=1;whiteSpace=wrap;connectable=0;overflow=hidden;fillColor=none;top=0;left=0;bottom=0;right=0;pointerEvents=1;fontFamily=IRANSansXFaNum;fontStyle=1;fontSize=18;" parent="dxVS9cvVU3etAeJPtLHa-42" vertex="1">
          <mxGeometry x="120" width="40" height="40" as="geometry">
            <mxRectangle width="40" height="40" as="alternateBounds" />
          </mxGeometry>
        </mxCell>
        <mxCell id="dxVS9cvVU3etAeJPtLHa-47" value="" style="shape=partialRectangle;html=1;whiteSpace=wrap;connectable=0;overflow=hidden;fillColor=none;top=0;left=0;bottom=0;right=0;pointerEvents=1;fontFamily=IRANSansXFaNum;fontStyle=1;fontSize=18;" parent="dxVS9cvVU3etAeJPtLHa-42" vertex="1">
          <mxGeometry x="160" width="40" height="40" as="geometry">
            <mxRectangle width="40" height="40" as="alternateBounds" />
          </mxGeometry>
        </mxCell>
        <mxCell id="dxVS9cvVU3etAeJPtLHa-48" value="" style="shape=partialRectangle;html=1;whiteSpace=wrap;connectable=0;overflow=hidden;fillColor=none;top=0;left=0;bottom=0;right=0;pointerEvents=1;fontFamily=IRANSansXFaNum;fontStyle=1;fontSize=18;" parent="dxVS9cvVU3etAeJPtLHa-42" vertex="1">
          <mxGeometry x="200" width="40" height="40" as="geometry">
            <mxRectangle width="40" height="40" as="alternateBounds" />
          </mxGeometry>
        </mxCell>
        <mxCell id="dxVS9cvVU3etAeJPtLHa-49" value="" style="shape=partialRectangle;html=1;whiteSpace=wrap;connectable=0;overflow=hidden;fillColor=none;top=0;left=0;bottom=0;right=0;pointerEvents=1;fontFamily=IRANSansXFaNum;fontStyle=1;fontSize=18;" parent="dxVS9cvVU3etAeJPtLHa-42" vertex="1">
          <mxGeometry x="240" width="40" height="40" as="geometry">
            <mxRectangle width="40" height="40" as="alternateBounds" />
          </mxGeometry>
        </mxCell>
        <mxCell id="dxVS9cvVU3etAeJPtLHa-50" value="4" style="shape=partialRectangle;html=1;whiteSpace=wrap;connectable=0;overflow=hidden;fillColor=none;top=0;left=0;bottom=0;right=0;pointerEvents=1;fontFamily=IRANSansXFaNum;fontStyle=1;fontSize=18;" parent="dxVS9cvVU3etAeJPtLHa-42" vertex="1">
          <mxGeometry x="280" width="40" height="40" as="geometry">
            <mxRectangle width="40" height="40" as="alternateBounds" />
          </mxGeometry>
        </mxCell>
        <mxCell id="dxVS9cvVU3etAeJPtLHa-51" value="" style="shape=partialRectangle;html=1;whiteSpace=wrap;connectable=0;overflow=hidden;fillColor=none;top=0;left=0;bottom=0;right=0;pointerEvents=1;fontFamily=IRANSansXFaNum;fontStyle=1;fontSize=18;" parent="dxVS9cvVU3etAeJPtLHa-42" vertex="1">
          <mxGeometry x="320" width="40" height="40" as="geometry">
            <mxRectangle width="40" height="40" as="alternateBounds" />
          </mxGeometry>
        </mxCell>
        <mxCell id="dxVS9cvVU3etAeJPtLHa-52" value="" style="shape=tableRow;horizontal=0;startSize=0;swimlaneHead=0;swimlaneBody=0;top=0;left=0;bottom=0;right=0;collapsible=0;dropTarget=0;fillColor=none;points=[[0,0.5],[1,0.5]];portConstraint=eastwest;" parent="dxVS9cvVU3etAeJPtLHa-1" vertex="1">
          <mxGeometry y="200" width="360" height="40" as="geometry" />
        </mxCell>
        <mxCell id="dxVS9cvVU3etAeJPtLHa-53" value="" style="shape=partialRectangle;html=1;whiteSpace=wrap;connectable=0;overflow=hidden;fillColor=none;top=0;left=0;bottom=0;right=0;pointerEvents=1;fontFamily=IRANSansXFaNum;fontStyle=1;fontSize=18;" parent="dxVS9cvVU3etAeJPtLHa-52" vertex="1">
          <mxGeometry width="40" height="40" as="geometry">
            <mxRectangle width="40" height="40" as="alternateBounds" />
          </mxGeometry>
        </mxCell>
        <mxCell id="dxVS9cvVU3etAeJPtLHa-54" value="" style="shape=partialRectangle;html=1;whiteSpace=wrap;connectable=0;overflow=hidden;fillColor=none;top=0;left=0;bottom=0;right=0;pointerEvents=1;fontFamily=IRANSansXFaNum;fontStyle=1;fontSize=18;" parent="dxVS9cvVU3etAeJPtLHa-52" vertex="1">
          <mxGeometry x="40" width="40" height="40" as="geometry">
            <mxRectangle width="40" height="40" as="alternateBounds" />
          </mxGeometry>
        </mxCell>
        <mxCell id="dxVS9cvVU3etAeJPtLHa-55" value="2" style="shape=partialRectangle;html=1;whiteSpace=wrap;connectable=0;overflow=hidden;fillColor=none;top=0;left=0;bottom=0;right=0;pointerEvents=1;fontFamily=IRANSansXFaNum;fontStyle=1;fontSize=18;" parent="dxVS9cvVU3etAeJPtLHa-52" vertex="1">
          <mxGeometry x="80" width="40" height="40" as="geometry">
            <mxRectangle width="40" height="40" as="alternateBounds" />
          </mxGeometry>
        </mxCell>
        <mxCell id="dxVS9cvVU3etAeJPtLHa-56" value="" style="shape=partialRectangle;html=1;whiteSpace=wrap;connectable=0;overflow=hidden;fillColor=none;top=0;left=0;bottom=0;right=0;pointerEvents=1;fontFamily=IRANSansXFaNum;fontStyle=1;fontSize=18;" parent="dxVS9cvVU3etAeJPtLHa-52" vertex="1">
          <mxGeometry x="120" width="40" height="40" as="geometry">
            <mxRectangle width="40" height="40" as="alternateBounds" />
          </mxGeometry>
        </mxCell>
        <mxCell id="dxVS9cvVU3etAeJPtLHa-57" value="4" style="shape=partialRectangle;html=1;whiteSpace=wrap;connectable=0;overflow=hidden;fillColor=none;top=0;left=0;bottom=0;right=0;pointerEvents=1;fontFamily=IRANSansXFaNum;fontStyle=1;fontSize=18;" parent="dxVS9cvVU3etAeJPtLHa-52" vertex="1">
          <mxGeometry x="160" width="40" height="40" as="geometry">
            <mxRectangle width="40" height="40" as="alternateBounds" />
          </mxGeometry>
        </mxCell>
        <mxCell id="dxVS9cvVU3etAeJPtLHa-58" value="" style="shape=partialRectangle;html=1;whiteSpace=wrap;connectable=0;overflow=hidden;fillColor=none;top=0;left=0;bottom=0;right=0;pointerEvents=1;fontFamily=IRANSansXFaNum;fontStyle=1;fontSize=18;" parent="dxVS9cvVU3etAeJPtLHa-52" vertex="1">
          <mxGeometry x="200" width="40" height="40" as="geometry">
            <mxRectangle width="40" height="40" as="alternateBounds" />
          </mxGeometry>
        </mxCell>
        <mxCell id="dxVS9cvVU3etAeJPtLHa-59" value="" style="shape=partialRectangle;html=1;whiteSpace=wrap;connectable=0;overflow=hidden;fillColor=none;top=0;left=0;bottom=0;right=0;pointerEvents=1;fontFamily=IRANSansXFaNum;fontStyle=1;fontSize=18;" parent="dxVS9cvVU3etAeJPtLHa-52" vertex="1">
          <mxGeometry x="240" width="40" height="40" as="geometry">
            <mxRectangle width="40" height="40" as="alternateBounds" />
          </mxGeometry>
        </mxCell>
        <mxCell id="dxVS9cvVU3etAeJPtLHa-60" value="" style="shape=partialRectangle;html=1;whiteSpace=wrap;connectable=0;overflow=hidden;fillColor=none;top=0;left=0;bottom=0;right=0;pointerEvents=1;fontFamily=IRANSansXFaNum;fontStyle=1;fontSize=18;" parent="dxVS9cvVU3etAeJPtLHa-52" vertex="1">
          <mxGeometry x="280" width="40" height="40" as="geometry">
            <mxRectangle width="40" height="40" as="alternateBounds" />
          </mxGeometry>
        </mxCell>
        <mxCell id="dxVS9cvVU3etAeJPtLHa-61" value="" style="shape=partialRectangle;html=1;whiteSpace=wrap;connectable=0;overflow=hidden;fillColor=none;top=0;left=0;bottom=0;right=0;pointerEvents=1;fontFamily=IRANSansXFaNum;fontStyle=1;fontSize=18;" parent="dxVS9cvVU3etAeJPtLHa-52" vertex="1">
          <mxGeometry x="320" width="40" height="40" as="geometry">
            <mxRectangle width="40" height="40" as="alternateBounds" />
          </mxGeometry>
        </mxCell>
        <mxCell id="dxVS9cvVU3etAeJPtLHa-62" value="" style="shape=tableRow;horizontal=0;startSize=0;swimlaneHead=0;swimlaneBody=0;top=0;left=0;bottom=0;right=0;collapsible=0;dropTarget=0;fillColor=none;points=[[0,0.5],[1,0.5]];portConstraint=eastwest;" parent="dxVS9cvVU3etAeJPtLHa-1" vertex="1">
          <mxGeometry y="240" width="360" height="40" as="geometry" />
        </mxCell>
        <mxCell id="dxVS9cvVU3etAeJPtLHa-63" value="" style="shape=partialRectangle;html=1;whiteSpace=wrap;connectable=0;overflow=hidden;fillColor=none;top=0;left=0;bottom=0;right=0;pointerEvents=1;fontFamily=IRANSansXFaNum;fontStyle=1;fontSize=18;" parent="dxVS9cvVU3etAeJPtLHa-62" vertex="1">
          <mxGeometry width="40" height="40" as="geometry">
            <mxRectangle width="40" height="40" as="alternateBounds" />
          </mxGeometry>
        </mxCell>
        <mxCell id="dxVS9cvVU3etAeJPtLHa-64" value="" style="shape=partialRectangle;html=1;whiteSpace=wrap;connectable=0;overflow=hidden;fillColor=none;top=0;left=0;bottom=0;right=0;pointerEvents=1;fontFamily=IRANSansXFaNum;fontStyle=1;fontSize=18;" parent="dxVS9cvVU3etAeJPtLHa-62" vertex="1">
          <mxGeometry x="40" width="40" height="40" as="geometry">
            <mxRectangle width="40" height="40" as="alternateBounds" />
          </mxGeometry>
        </mxCell>
        <mxCell id="dxVS9cvVU3etAeJPtLHa-65" value="" style="shape=partialRectangle;html=1;whiteSpace=wrap;connectable=0;overflow=hidden;fillColor=none;top=0;left=0;bottom=0;right=0;pointerEvents=1;fontFamily=IRANSansXFaNum;fontStyle=1;fontSize=18;" parent="dxVS9cvVU3etAeJPtLHa-62" vertex="1">
          <mxGeometry x="80" width="40" height="40" as="geometry">
            <mxRectangle width="40" height="40" as="alternateBounds" />
          </mxGeometry>
        </mxCell>
        <mxCell id="dxVS9cvVU3etAeJPtLHa-66" value="" style="shape=partialRectangle;html=1;whiteSpace=wrap;connectable=0;overflow=hidden;fillColor=none;top=0;left=0;bottom=0;right=0;pointerEvents=1;fontFamily=IRANSansXFaNum;fontStyle=1;fontSize=18;" parent="dxVS9cvVU3etAeJPtLHa-62" vertex="1">
          <mxGeometry x="120" width="40" height="40" as="geometry">
            <mxRectangle width="40" height="40" as="alternateBounds" />
          </mxGeometry>
        </mxCell>
        <mxCell id="dxVS9cvVU3etAeJPtLHa-67" value="9" style="shape=partialRectangle;html=1;whiteSpace=wrap;connectable=0;overflow=hidden;fillColor=none;top=0;left=0;bottom=0;right=0;pointerEvents=1;fontFamily=IRANSansXFaNum;fontStyle=1;fontSize=18;" parent="dxVS9cvVU3etAeJPtLHa-62" vertex="1">
          <mxGeometry x="160" width="40" height="40" as="geometry">
            <mxRectangle width="40" height="40" as="alternateBounds" />
          </mxGeometry>
        </mxCell>
        <mxCell id="dxVS9cvVU3etAeJPtLHa-68" value="" style="shape=partialRectangle;html=1;whiteSpace=wrap;connectable=0;overflow=hidden;fillColor=none;top=0;left=0;bottom=0;right=0;pointerEvents=1;fontFamily=IRANSansXFaNum;fontStyle=1;fontSize=18;" parent="dxVS9cvVU3etAeJPtLHa-62" vertex="1">
          <mxGeometry x="200" width="40" height="40" as="geometry">
            <mxRectangle width="40" height="40" as="alternateBounds" />
          </mxGeometry>
        </mxCell>
        <mxCell id="dxVS9cvVU3etAeJPtLHa-69" value="" style="shape=partialRectangle;html=1;whiteSpace=wrap;connectable=0;overflow=hidden;fillColor=none;top=0;left=0;bottom=0;right=0;pointerEvents=1;fontFamily=IRANSansXFaNum;fontStyle=1;fontSize=18;" parent="dxVS9cvVU3etAeJPtLHa-62" vertex="1">
          <mxGeometry x="240" width="40" height="40" as="geometry">
            <mxRectangle width="40" height="40" as="alternateBounds" />
          </mxGeometry>
        </mxCell>
        <mxCell id="dxVS9cvVU3etAeJPtLHa-70" value="3" style="shape=partialRectangle;html=1;whiteSpace=wrap;connectable=0;overflow=hidden;fillColor=none;top=0;left=0;bottom=0;right=0;pointerEvents=1;fontFamily=IRANSansXFaNum;fontStyle=1;fontSize=18;" parent="dxVS9cvVU3etAeJPtLHa-62" vertex="1">
          <mxGeometry x="280" width="40" height="40" as="geometry">
            <mxRectangle width="40" height="40" as="alternateBounds" />
          </mxGeometry>
        </mxCell>
        <mxCell id="dxVS9cvVU3etAeJPtLHa-71" value="" style="shape=partialRectangle;html=1;whiteSpace=wrap;connectable=0;overflow=hidden;fillColor=none;top=0;left=0;bottom=0;right=0;pointerEvents=1;fontFamily=IRANSansXFaNum;fontStyle=1;fontSize=18;" parent="dxVS9cvVU3etAeJPtLHa-62" vertex="1">
          <mxGeometry x="320" width="40" height="40" as="geometry">
            <mxRectangle width="40" height="40" as="alternateBounds" />
          </mxGeometry>
        </mxCell>
        <mxCell id="dxVS9cvVU3etAeJPtLHa-72" value="" style="shape=tableRow;horizontal=0;startSize=0;swimlaneHead=0;swimlaneBody=0;top=0;left=0;bottom=0;right=0;collapsible=0;dropTarget=0;fillColor=none;points=[[0,0.5],[1,0.5]];portConstraint=eastwest;" parent="dxVS9cvVU3etAeJPtLHa-1" vertex="1">
          <mxGeometry y="280" width="360" height="40" as="geometry" />
        </mxCell>
        <mxCell id="dxVS9cvVU3etAeJPtLHa-73" value="2" style="shape=partialRectangle;html=1;whiteSpace=wrap;connectable=0;overflow=hidden;fillColor=none;top=0;left=0;bottom=0;right=0;pointerEvents=1;fontFamily=IRANSansXFaNum;fontStyle=1;fontSize=18;" parent="dxVS9cvVU3etAeJPtLHa-72" vertex="1">
          <mxGeometry width="40" height="40" as="geometry">
            <mxRectangle width="40" height="40" as="alternateBounds" />
          </mxGeometry>
        </mxCell>
        <mxCell id="dxVS9cvVU3etAeJPtLHa-74" value="" style="shape=partialRectangle;html=1;whiteSpace=wrap;connectable=0;overflow=hidden;fillColor=none;top=0;left=0;bottom=0;right=0;pointerEvents=1;fontFamily=IRANSansXFaNum;fontStyle=1;fontSize=18;" parent="dxVS9cvVU3etAeJPtLHa-72" vertex="1">
          <mxGeometry x="40" width="40" height="40" as="geometry">
            <mxRectangle width="40" height="40" as="alternateBounds" />
          </mxGeometry>
        </mxCell>
        <mxCell id="dxVS9cvVU3etAeJPtLHa-75" value="" style="shape=partialRectangle;html=1;whiteSpace=wrap;connectable=0;overflow=hidden;fillColor=none;top=0;left=0;bottom=0;right=0;pointerEvents=1;fontFamily=IRANSansXFaNum;fontStyle=1;fontSize=18;" parent="dxVS9cvVU3etAeJPtLHa-72" vertex="1">
          <mxGeometry x="80" width="40" height="40" as="geometry">
            <mxRectangle width="40" height="40" as="alternateBounds" />
          </mxGeometry>
        </mxCell>
        <mxCell id="dxVS9cvVU3etAeJPtLHa-76" value="7" style="shape=partialRectangle;html=1;whiteSpace=wrap;connectable=0;overflow=hidden;fillColor=none;top=0;left=0;bottom=0;right=0;pointerEvents=1;fontFamily=IRANSansXFaNum;fontStyle=1;fontSize=18;" parent="dxVS9cvVU3etAeJPtLHa-72" vertex="1">
          <mxGeometry x="120" width="40" height="40" as="geometry">
            <mxRectangle width="40" height="40" as="alternateBounds" />
          </mxGeometry>
        </mxCell>
        <mxCell id="dxVS9cvVU3etAeJPtLHa-77" value="3" style="shape=partialRectangle;html=1;whiteSpace=wrap;connectable=0;overflow=hidden;fillColor=none;top=0;left=0;bottom=0;right=0;pointerEvents=1;fontFamily=IRANSansXFaNum;fontStyle=1;fontSize=18;" parent="dxVS9cvVU3etAeJPtLHa-72" vertex="1">
          <mxGeometry x="160" width="40" height="40" as="geometry">
            <mxRectangle width="40" height="40" as="alternateBounds" />
          </mxGeometry>
        </mxCell>
        <mxCell id="dxVS9cvVU3etAeJPtLHa-78" value="" style="shape=partialRectangle;html=1;whiteSpace=wrap;connectable=0;overflow=hidden;fillColor=none;top=0;left=0;bottom=0;right=0;pointerEvents=1;fontFamily=IRANSansXFaNum;fontStyle=1;fontSize=18;" parent="dxVS9cvVU3etAeJPtLHa-72" vertex="1">
          <mxGeometry x="200" width="40" height="40" as="geometry">
            <mxRectangle width="40" height="40" as="alternateBounds" />
          </mxGeometry>
        </mxCell>
        <mxCell id="dxVS9cvVU3etAeJPtLHa-79" value="" style="shape=partialRectangle;html=1;whiteSpace=wrap;connectable=0;overflow=hidden;fillColor=none;top=0;left=0;bottom=0;right=0;pointerEvents=1;fontFamily=IRANSansXFaNum;fontStyle=1;fontSize=18;" parent="dxVS9cvVU3etAeJPtLHa-72" vertex="1">
          <mxGeometry x="240" width="40" height="40" as="geometry">
            <mxRectangle width="40" height="40" as="alternateBounds" />
          </mxGeometry>
        </mxCell>
        <mxCell id="dxVS9cvVU3etAeJPtLHa-80" value="" style="shape=partialRectangle;html=1;whiteSpace=wrap;connectable=0;overflow=hidden;fillColor=none;top=0;left=0;bottom=0;right=0;pointerEvents=1;fontFamily=IRANSansXFaNum;fontStyle=1;fontSize=18;" parent="dxVS9cvVU3etAeJPtLHa-72" vertex="1">
          <mxGeometry x="280" width="40" height="40" as="geometry">
            <mxRectangle width="40" height="40" as="alternateBounds" />
          </mxGeometry>
        </mxCell>
        <mxCell id="dxVS9cvVU3etAeJPtLHa-81" value="" style="shape=partialRectangle;html=1;whiteSpace=wrap;connectable=0;overflow=hidden;fillColor=none;top=0;left=0;bottom=0;right=0;pointerEvents=1;fontFamily=IRANSansXFaNum;fontStyle=1;fontSize=18;" parent="dxVS9cvVU3etAeJPtLHa-72" vertex="1">
          <mxGeometry x="320" width="40" height="40" as="geometry">
            <mxRectangle width="40" height="40" as="alternateBounds" />
          </mxGeometry>
        </mxCell>
        <mxCell id="dxVS9cvVU3etAeJPtLHa-82" value="" style="shape=tableRow;horizontal=0;startSize=0;swimlaneHead=0;swimlaneBody=0;top=0;left=0;bottom=0;right=0;collapsible=0;dropTarget=0;fillColor=none;points=[[0,0.5],[1,0.5]];portConstraint=eastwest;" parent="dxVS9cvVU3etAeJPtLHa-1" vertex="1">
          <mxGeometry y="320" width="360" height="40" as="geometry" />
        </mxCell>
        <mxCell id="dxVS9cvVU3etAeJPtLHa-83" value="" style="shape=partialRectangle;html=1;whiteSpace=wrap;connectable=0;overflow=hidden;fillColor=none;top=0;left=0;bottom=0;right=0;pointerEvents=1;fontFamily=IRANSansXFaNum;fontStyle=1;fontSize=18;" parent="dxVS9cvVU3etAeJPtLHa-82" vertex="1">
          <mxGeometry width="40" height="40" as="geometry">
            <mxRectangle width="40" height="40" as="alternateBounds" />
          </mxGeometry>
        </mxCell>
        <mxCell id="dxVS9cvVU3etAeJPtLHa-84" value="" style="shape=partialRectangle;html=1;whiteSpace=wrap;connectable=0;overflow=hidden;fillColor=none;top=0;left=0;bottom=0;right=0;pointerEvents=1;fontFamily=IRANSansXFaNum;fontStyle=1;fontSize=18;" parent="dxVS9cvVU3etAeJPtLHa-82" vertex="1">
          <mxGeometry x="40" width="40" height="40" as="geometry">
            <mxRectangle width="40" height="40" as="alternateBounds" />
          </mxGeometry>
        </mxCell>
        <mxCell id="dxVS9cvVU3etAeJPtLHa-85" value="3" style="shape=partialRectangle;html=1;whiteSpace=wrap;connectable=0;overflow=hidden;fillColor=none;top=0;left=0;bottom=0;right=0;pointerEvents=1;fontFamily=IRANSansXFaNum;fontStyle=1;fontSize=18;" parent="dxVS9cvVU3etAeJPtLHa-82" vertex="1">
          <mxGeometry x="80" width="40" height="40" as="geometry">
            <mxRectangle width="40" height="40" as="alternateBounds" />
          </mxGeometry>
        </mxCell>
        <mxCell id="dxVS9cvVU3etAeJPtLHa-86" value="" style="shape=partialRectangle;html=1;whiteSpace=wrap;connectable=0;overflow=hidden;fillColor=none;top=0;left=0;bottom=0;right=0;pointerEvents=1;fontFamily=IRANSansXFaNum;fontStyle=1;fontSize=18;" parent="dxVS9cvVU3etAeJPtLHa-82" vertex="1">
          <mxGeometry x="120" width="40" height="40" as="geometry">
            <mxRectangle width="40" height="40" as="alternateBounds" />
          </mxGeometry>
        </mxCell>
        <mxCell id="dxVS9cvVU3etAeJPtLHa-87" value="5" style="shape=partialRectangle;html=1;whiteSpace=wrap;connectable=0;overflow=hidden;fillColor=none;top=0;left=0;bottom=0;right=0;pointerEvents=1;fontFamily=IRANSansXFaNum;fontStyle=1;fontSize=18;" parent="dxVS9cvVU3etAeJPtLHa-82" vertex="1">
          <mxGeometry x="160" width="40" height="40" as="geometry">
            <mxRectangle width="40" height="40" as="alternateBounds" />
          </mxGeometry>
        </mxCell>
        <mxCell id="dxVS9cvVU3etAeJPtLHa-88" value="" style="shape=partialRectangle;html=1;whiteSpace=wrap;connectable=0;overflow=hidden;fillColor=none;top=0;left=0;bottom=0;right=0;pointerEvents=1;fontFamily=IRANSansXFaNum;fontStyle=1;fontSize=18;" parent="dxVS9cvVU3etAeJPtLHa-82" vertex="1">
          <mxGeometry x="200" width="40" height="40" as="geometry">
            <mxRectangle width="40" height="40" as="alternateBounds" />
          </mxGeometry>
        </mxCell>
        <mxCell id="dxVS9cvVU3etAeJPtLHa-89" value="9" style="shape=partialRectangle;html=1;whiteSpace=wrap;connectable=0;overflow=hidden;fillColor=none;top=0;left=0;bottom=0;right=0;pointerEvents=1;fontFamily=IRANSansXFaNum;fontStyle=1;fontSize=18;" parent="dxVS9cvVU3etAeJPtLHa-82" vertex="1">
          <mxGeometry x="240" width="40" height="40" as="geometry">
            <mxRectangle width="40" height="40" as="alternateBounds" />
          </mxGeometry>
        </mxCell>
        <mxCell id="dxVS9cvVU3etAeJPtLHa-90" value="2" style="shape=partialRectangle;html=1;whiteSpace=wrap;connectable=0;overflow=hidden;fillColor=none;top=0;left=0;bottom=0;right=0;pointerEvents=1;fontFamily=IRANSansXFaNum;fontStyle=1;fontSize=18;" parent="dxVS9cvVU3etAeJPtLHa-82" vertex="1">
          <mxGeometry x="280" width="40" height="40" as="geometry">
            <mxRectangle width="40" height="40" as="alternateBounds" />
          </mxGeometry>
        </mxCell>
        <mxCell id="dxVS9cvVU3etAeJPtLHa-91" value="" style="shape=partialRectangle;html=1;whiteSpace=wrap;connectable=0;overflow=hidden;fillColor=none;top=0;left=0;bottom=0;right=0;pointerEvents=1;fontFamily=IRANSansXFaNum;fontStyle=1;fontSize=18;" parent="dxVS9cvVU3etAeJPtLHa-82" vertex="1">
          <mxGeometry x="320" width="40" height="40" as="geometry">
            <mxRectangle width="40" height="40" as="alternateBounds" />
          </mxGeometry>
        </mxCell>
        <mxCell id="dxVS9cvVU3etAeJPtLHa-92" value="Û°" style="text;html=1;align=center;verticalAlign=middle;resizable=0;points=[];autosize=1;strokeColor=none;fillColor=none;fontSize=18;fontFamily=IRANSansX;fontColor=#0000CC;fontStyle=1" parent="1" vertex="1">
          <mxGeometry x="170" y="85" width="20" height="30" as="geometry" />
        </mxCell>
        <mxCell id="dxVS9cvVU3etAeJPtLHa-93" value="Û±" style="text;html=1;align=center;verticalAlign=middle;resizable=0;points=[];autosize=1;strokeColor=none;fillColor=none;fontSize=18;fontFamily=IRANSansX;fontColor=#0000CC;fontStyle=1" parent="1" vertex="1">
          <mxGeometry x="210" y="85" width="20" height="30" as="geometry" />
        </mxCell>
        <mxCell id="dxVS9cvVU3etAeJPtLHa-94" value="Û²" style="text;html=1;align=center;verticalAlign=middle;resizable=0;points=[];autosize=1;strokeColor=none;fillColor=none;fontSize=18;fontFamily=IRANSansX;fontColor=#0000CC;fontStyle=1" parent="1" vertex="1">
          <mxGeometry x="244" y="85" width="30" height="30" as="geometry" />
        </mxCell>
        <mxCell id="dxVS9cvVU3etAeJPtLHa-95" value="Û³" style="text;html=1;align=center;verticalAlign=middle;resizable=0;points=[];autosize=1;strokeColor=none;fillColor=none;fontSize=18;fontFamily=IRANSansX;fontColor=#0000CC;fontStyle=1" parent="1" vertex="1">
          <mxGeometry x="285" y="85" width="30" height="30" as="geometry" />
        </mxCell>
        <mxCell id="dxVS9cvVU3etAeJPtLHa-96" value="Û´" style="text;html=1;align=center;verticalAlign=middle;resizable=0;points=[];autosize=1;strokeColor=none;fillColor=none;fontSize=18;fontFamily=IRANSansX;fontColor=#0000CC;fontStyle=1" parent="1" vertex="1">
          <mxGeometry x="325" y="85" width="30" height="30" as="geometry" />
        </mxCell>
        <mxCell id="dxVS9cvVU3etAeJPtLHa-97" value="Ûµ" style="text;html=1;align=center;verticalAlign=middle;resizable=0;points=[];autosize=1;strokeColor=none;fillColor=none;fontSize=18;fontFamily=IRANSansX;fontColor=#0000CC;fontStyle=1" parent="1" vertex="1">
          <mxGeometry x="365" y="85" width="30" height="30" as="geometry" />
        </mxCell>
        <mxCell id="dxVS9cvVU3etAeJPtLHa-98" value="Û¶" style="text;html=1;align=center;verticalAlign=middle;resizable=0;points=[];autosize=1;strokeColor=none;fillColor=none;fontSize=18;fontFamily=IRANSansX;fontColor=#0000CC;fontStyle=1" parent="1" vertex="1">
          <mxGeometry x="404" y="85" width="30" height="30" as="geometry" />
        </mxCell>
        <mxCell id="dxVS9cvVU3etAeJPtLHa-99" value="Û·" style="text;html=1;align=center;verticalAlign=middle;resizable=0;points=[];autosize=1;strokeColor=none;fillColor=none;fontSize=18;fontFamily=IRANSansX;fontColor=#0000CC;fontStyle=1" parent="1" vertex="1">
          <mxGeometry x="445" y="85" width="30" height="30" as="geometry" />
        </mxCell>
        <mxCell id="dxVS9cvVU3etAeJPtLHa-100" value="Û¸" style="text;html=1;align=center;verticalAlign=middle;resizable=0;points=[];autosize=1;strokeColor=none;fillColor=none;fontSize=18;fontFamily=IRANSansX;fontColor=#0000CC;fontStyle=1" parent="1" vertex="1">
          <mxGeometry x="485" y="85" width="30" height="30" as="geometry" />
        </mxCell>
        <mxCell id="dxVS9cvVU3etAeJPtLHa-101" value="" style="endArrow=none;html=1;rounded=0;fontFamily=IRANSansX;fontSize=18;fontColor=#0000CC;entryX=0;entryY=0;entryDx=0;entryDy=0;entryPerimeter=0;" parent="1" target="dxVS9cvVU3etAeJPtLHa-2" edge="1">
          <mxGeometry width="50" height="50" relative="1" as="geometry">
            <mxPoint x="80" y="80" as="sourcePoint" />
            <mxPoint x="430" y="260" as="targetPoint" />
          </mxGeometry>
        </mxCell>
        <mxCell id="dxVS9cvVU3etAeJPtLHa-102" value="&lt;font style=&quot;font-size: 15px;&quot;&gt;&lt;span style=&quot;font-size: 15px;&quot;&gt;&lt;font style=&quot;font-size: 15px;&quot;&gt;Ø³ØªÙÙ&lt;/font&gt;&lt;/span&gt;&lt;/font&gt;" style="text;html=1;align=center;verticalAlign=middle;resizable=0;points=[];autosize=1;strokeColor=none;fillColor=none;fontSize=15;fontFamily=IRANSansX;fontColor=#000000;fontStyle=1;rotation=0;" parent="1" vertex="1">
          <mxGeometry x="110" y="80" width="50" height="20" as="geometry" />
        </mxCell>
        <mxCell id="dxVS9cvVU3etAeJPtLHa-103" value="Ø³Ø·Ø±" style="text;html=1;align=center;verticalAlign=middle;resizable=0;points=[];autosize=1;strokeColor=none;fillColor=none;fontSize=15;fontFamily=IRANSansX;fontColor=#000000;fontStyle=1;rotation=0;" parent="1" vertex="1">
          <mxGeometry x="80" y="100" width="40" height="20" as="geometry" />
        </mxCell>
        <mxCell id="dxVS9cvVU3etAeJPtLHa-104" value="Û°" style="text;html=1;align=center;verticalAlign=middle;resizable=0;points=[];autosize=1;strokeColor=none;fillColor=none;fontSize=18;fontFamily=IRANSansX;fontColor=#0000CC;fontStyle=1" parent="1" vertex="1">
          <mxGeometry x="130" y="130" width="20" height="30" as="geometry" />
        </mxCell>
        <mxCell id="dxVS9cvVU3etAeJPtLHa-105" value="Û±" style="text;html=1;align=center;verticalAlign=middle;resizable=0;points=[];autosize=1;strokeColor=none;fillColor=none;fontSize=18;fontFamily=IRANSansX;fontColor=#0000CC;fontStyle=1" parent="1" vertex="1">
          <mxGeometry x="130" y="166" width="20" height="30" as="geometry" />
        </mxCell>
        <mxCell id="dxVS9cvVU3etAeJPtLHa-106" value="Û²" style="text;html=1;align=center;verticalAlign=middle;resizable=0;points=[];autosize=1;strokeColor=none;fillColor=none;fontSize=18;fontFamily=IRANSansX;fontColor=#0000CC;fontStyle=1" parent="1" vertex="1">
          <mxGeometry x="125" y="206" width="30" height="30" as="geometry" />
        </mxCell>
        <mxCell id="dxVS9cvVU3etAeJPtLHa-107" value="Û³" style="text;html=1;align=center;verticalAlign=middle;resizable=0;points=[];autosize=1;strokeColor=none;fillColor=none;fontSize=18;fontFamily=IRANSansX;fontColor=#0000CC;fontStyle=1" parent="1" vertex="1">
          <mxGeometry x="125" y="245" width="30" height="30" as="geometry" />
        </mxCell>
        <mxCell id="dxVS9cvVU3etAeJPtLHa-108" value="Û´" style="text;html=1;align=center;verticalAlign=middle;resizable=0;points=[];autosize=1;strokeColor=none;fillColor=none;fontSize=18;fontFamily=IRANSansX;fontColor=#0000CC;fontStyle=1" parent="1" vertex="1">
          <mxGeometry x="125" y="285" width="30" height="30" as="geometry" />
        </mxCell>
        <mxCell id="dxVS9cvVU3etAeJPtLHa-109" value="Ûµ" style="text;html=1;align=center;verticalAlign=middle;resizable=0;points=[];autosize=1;strokeColor=none;fillColor=none;fontSize=18;fontFamily=IRANSansX;fontColor=#0000CC;fontStyle=1" parent="1" vertex="1">
          <mxGeometry x="125" y="325" width="30" height="30" as="geometry" />
        </mxCell>
        <mxCell id="dxVS9cvVU3etAeJPtLHa-110" value="Û¶" style="text;html=1;align=center;verticalAlign=middle;resizable=0;points=[];autosize=1;strokeColor=none;fillColor=none;fontSize=18;fontFamily=IRANSansX;fontColor=#0000CC;fontStyle=1" parent="1" vertex="1">
          <mxGeometry x="125" y="366" width="30" height="30" as="geometry" />
        </mxCell>
        <mxCell id="dxVS9cvVU3etAeJPtLHa-111" value="Û·" style="text;html=1;align=center;verticalAlign=middle;resizable=0;points=[];autosize=1;strokeColor=none;fillColor=none;fontSize=18;fontFamily=IRANSansX;fontColor=#0000CC;fontStyle=1" parent="1" vertex="1">
          <mxGeometry x="125" y="406" width="30" height="30" as="geometry" />
        </mxCell>
        <mxCell id="dxVS9cvVU3etAeJPtLHa-112" value="Û¸" style="text;html=1;align=center;verticalAlign=middle;resizable=0;points=[];autosize=1;strokeColor=none;fillColor=none;fontSize=18;fontFamily=IRANSansX;fontColor=#0000CC;fontStyle=1" parent="1" vertex="1">
          <mxGeometry x="125" y="446" width="30" height="30" as="geometry" />
        </mxCell>
        <mxCell id="dxVS9cvVU3etAeJPtLHa-113" value="row" style="text;html=1;align=center;verticalAlign=middle;resizable=0;points=[];autosize=1;strokeColor=none;fillColor=none;fontSize=15;fontFamily=IRANSansX;fontColor=#000000;fontStyle=1;rotation=-90;" parent="1" vertex="1">
          <mxGeometry x="85" y="314" width="40" height="20" as="geometry" />
        </mxCell>
        <mxCell id="dxVS9cvVU3etAeJPtLHa-114" value="column" style="text;html=1;align=center;verticalAlign=middle;resizable=0;points=[];autosize=1;strokeColor=none;fillColor=none;fontSize=15;fontFamily=IRANSansX;fontColor=#000000;fontStyle=1;rotation=0;" parent="1" vertex="1">
          <mxGeometry x="285" y="50" width="70" height="20" as="geometry" />
        </mxCell>
        <mxCell id="1nbMeXnzdaab1w3wpE_t-2" value="&lt;font style=&quot;font-size: 18px&quot;&gt;Û¶&lt;/font&gt;" style="shape=partialRectangle;html=1;whiteSpace=wrap;connectable=0;overflow=hidden;fillColor=none;top=0;left=0;bottom=0;right=0;pointerEvents=1;" vertex="1" parent="1">
          <mxGeometry x="440" y="160" width="40" height="40" as="geometry">
            <mxRectangle width="40" height="40" as="alternateBounds" />
          </mxGeometry>
        </mxCell>
      </root>
    </mxGraphModel>
  </diagram>
</mxfile>
